<?xml version="1.0" standalone="no"?>
<!DOCTYPE svg PUBLIC "-//W3C//DTD SVG 20010904//EN"
 "http://www.w3.org/TR/2001/REC-SVG-20010904/DTD/svg10.dtd">
<svg version="1.0" xmlns="http://www.w3.org/2000/svg"
 width="232.000000pt" height="70.000000pt" viewBox="0 0 232.000000 70.000000"
 preserveAspectRatio="xMidYMid meet">

<g transform="translate(0.000000,70.000000) scale(0.100000,-0.100000)"
fill="#000000" stroke="none">
<path d="M403 540 c-5 -17 -11 -19 -39 -14 -30 5 -35 3 -44 -20 -8 -22 -16
-26 -50 -26 l-40 0 2 -167 3 -168 129 0 129 0 12 35 12 35 76 3 77 3 0 141 c0
140 0 142 -27 170 -26 27 -30 28 -131 28 -96 0 -104 -2 -109 -20z m207 -16 c0
-9 9 -18 20 -21 19 -5 20 -14 20 -139 l0 -134 -65 0 c-36 0 -65 2 -65 4 0 24
17 36 54 38 l41 1 -37 4 c-52 6 -52 32 0 35 l37 1 -33 4 c-42 5 -40 35 3 44
l30 7 -27 1 c-18 1 -28 7 -28 16 0 9 10 16 28 16 23 2 24 2 5 6 -13 2 -23 11
-23 18 0 7 10 16 23 18 20 4 20 4 -4 6 -41 2 -65 35 -31 44 9 3 -11 5 -46 6
-63 1 -102 13 -102 31 0 6 42 10 100 10 85 0 100 -2 100 -16z m-214 -18 c27
-8 68 -19 91 -25 32 -9 40 -15 36 -29 -3 -11 3 -22 15 -28 18 -9 18 -12 -9
-109 l-27 -100 -1 109 c-1 98 -3 112 -23 133 -18 19 -32 23 -85 23 -46 0 -63
4 -63 13 0 11 9 27 15 27 1 0 24 -6 51 -14z m44 -56 c0 -13 7 -20 20 -20 19 0
20 -7 20 -135 l0 -135 -115 0 -115 0 0 155 0 155 95 0 c88 0 95 -1 95 -20z"/>
<path d="M318 413 c18 -2 45 -2 60 0 15 2 0 4 -33 4 -33 0 -45 -2 -27 -4z"/>
<path d="M328 373 c23 -2 59 -2 80 0 20 2 1 4 -43 4 -44 0 -61 -2 -37 -4z"/>
<path d="M290 330 c0 -6 32 -10 75 -10 43 0 75 4 75 10 0 6 -32 10 -75 10 -43
0 -75 -4 -75 -10z"/>
<path d="M328 283 c23 -2 59 -2 80 0 20 2 1 4 -43 4 -44 0 -61 -2 -37 -4z"/>
<path d="M328 243 c23 -2 59 -2 80 0 20 2 1 4 -43 4 -44 0 -61 -2 -37 -4z"/>
<path d="M328 193 c23 -2 59 -2 80 0 20 2 1 4 -43 4 -44 0 -61 -2 -37 -4z"/>
<path d="M880 360 l0 -150 91 0 c81 0 90 2 87 18 -3 14 -16 17 -81 20 l-77 3
0 129 c0 80 -4 130 -10 130 -6 0 -10 -57 -10 -150z"/>
<path d="M1104 497 c-9 -24 1 -277 11 -280 6 -1 12 49 15 128 l5 130 56 0 c70
0 89 -15 89 -66 0 -40 -18 -59 -57 -59 -29 0 -50 -17 -37 -30 17 -17 90 5 109
33 26 37 19 94 -14 128 -27 27 -35 29 -101 29 -49 0 -72 -4 -76 -13z"/>
<path d="M1356 501 c-6 -9 64 -193 101 -265 17 -34 23 -29 53 47 12 31 26 57
32 57 5 0 18 -21 28 -47 27 -65 34 -76 45 -73 12 4 114 247 115 273 1 41 -20
9 -65 -98 -26 -63 -51 -113 -55 -110 -4 3 -18 30 -30 61 -22 53 -22 57 -6 90
17 38 21 74 7 74 -5 0 -14 -13 -21 -30 -16 -38 -23 -38 -38 2 -8 23 -15 29
-22 22 -8 -8 -5 -26 8 -60 l20 -49 -27 -60 c-32 -69 -27 -73 -86 70 -39 97
-49 113 -59 96z"/>
<path d="M1834 490 c-45 -22 -84 -81 -84 -124 0 -66 60 -139 123 -151 40 -8
117 20 117 42 0 11 -6 13 -22 8 -13 -4 -44 -10 -71 -12 -43 -5 -50 -2 -82 30
-29 29 -35 42 -35 77 0 34 6 48 34 76 30 30 40 34 84 34 28 0 54 -4 57 -10 9
-14 35 -12 35 3 0 17 -33 36 -77 42 -27 4 -50 0 -79 -15z"/>
</g>
</svg>
